<?xml version="1.0" encoding="UTF-8"?>
<svg version="1.1" xmlns="http://www.w3.org/2000/svg" preserveAspectRatio="xMidYMid meet" viewbox="0 0 1125 1125">
<path d="M0 0 C371.25 0 742.5 0 1125 0 C1125 371.25 1125 742.5 1125 1125 C753.75 1125 382.5 1125 0 1125 C0 753.75 0 382.5 0 0 Z " fill="transparent" description="main background" transform="translate(0,0)"/>
<path d="M0 0 C4.14770791 0.01103535 8.29539625 0.00446372 12.44311154 0.00021553 C20.53676861 -0.00537884 28.63032982 0.00481961 36.72397058 0.02050349 C46.15789502 0.03813937 55.59180151 0.0394647 65.02573986 0.04011908 C81.85223682 0.04180176 98.6786904 0.0575565 115.50516903 0.08160591 C131.82515968 0.10491434 148.14512282 0.11903909 164.46512997 0.12262154 C165.47262698 0.1228443 166.48012399 0.12306707 167.51815122 0.12329659 C169.54786162 0.1237392 171.57757203 0.12418122 173.60728243 0.12462266 C175.1092039 0.12495201 175.1092039 0.12495201 176.64146721 0.12528801 C177.64026063 0.125504 178.63905406 0.12571998 179.66811394 0.12594251 C195.2446555 0.12964102 210.82119264 0.14099564 226.39772935 0.15341841 C232.0385331 0.1578517 237.67933644 0.1612907 243.32014125 0.16404054 C252.25605384 0.16846992 261.1919501 0.17623575 270.12785237 0.19081494 C274.2095258 0.19742353 278.29118482 0.20248815 282.37286389 0.20327568 C286.10711366 0.20406207 289.84132697 0.20946328 293.57556541 0.21859518 C295.56915443 0.22229558 297.56275065 0.22112251 299.55634266 0.21978831 C301.3293063 0.22555003 301.3293063 0.22555003 303.13808739 0.23142815 C304.15818664 0.23267464 305.17828588 0.23392114 306.22929722 0.23520541 C308.9274284 0.35918282 311.37297492 0.79184725 314.0073663 1.36285591 C316.04819759 1.46461481 318.0901179 1.54526377 320.1323663 1.61285591 C337.79787341 2.72236764 355.30720944 6.59517238 372.0073663 12.36285591 C373.83813844 12.89262174 375.67121474 13.41454683 377.5073663 13.92535591 C381.21029178 15.02320819 384.53141846 16.46166521 387.92533505 18.30035591 C389.64164772 19.17622279 391.40780029 19.95369092 393.18314755 20.70269966 C410.53044818 28.05937217 426.63478239 38.22311687 441.0073663 50.36285591 C441.5421661 50.80887154 442.07696591 51.25488716 442.62797177 51.71441841 C454.21270887 61.38290751 464.65456358 71.47097617 474.0073663 83.36285591 C475.19459286 84.82465279 475.19459286 84.82465279 476.4058038 86.31598091 C497.8632874 113.25629156 512.86513852 146.4660369 519.0073663 180.36285591 C519.22948788 181.58730415 519.22948788 181.58730415 519.45609677 182.83648872 C525.24832567 216.39275992 522.86722354 251.77440758 513.0073663 284.36285591 C512.66060849 285.57973091 512.31385067 286.79660591 511.95658505 288.05035591 C509.17669011 297.59722291 505.49544058 306.49034338 501.0073663 315.36285591 C500.63450497 316.1097065 500.26164364 316.85655708 499.87748349 317.62603951 C488.8446353 339.62385536 475.01001266 358.61174383 458.0073663 376.36285591 C456.94388974 377.48820747 456.94388974 377.48820747 455.8589288 378.63629341 C450.63356812 384.03227811 444.92537174 388.74666204 439.0073663 393.36285591 C438.46225399 393.78969673 437.91714169 394.21653755 437.35551083 394.65631294 C407.69904066 417.69250888 370.48927414 434.8455752 332.90189755 438.83941841 C330.04688326 439.06035196 330.04688326 439.06035196 328.76224911 440.67999458 C326.22628292 443.11188315 323.19022469 444.35996503 320.03471005 445.81207466 C319.33258893 446.14155098 318.6304678 446.4710273 317.90707028 446.81048775 C315.58912318 447.89652057 313.26703649 448.97338641 310.9448663 450.05035591 C309.31679884 450.81118777 307.689036 451.57267175 306.06156552 452.33477974 C302.69935602 453.90834969 299.33563739 455.47862488 295.97074521 457.04644966 C291.34590195 459.20272742 286.72788125 461.37320033 282.11283505 463.55035591 C281.40601086 463.88375984 280.69918667 464.21716377 279.97094357 464.56067085 C278.5600903 465.22619654 277.14924732 465.89174405 275.73841488 466.55731392 C263.94287203 472.11913688 252.13029765 477.64400056 240.30851376 483.14978218 C230.58783606 487.67803409 220.88685505 492.24701984 211.19300473 496.83239937 C199.69969433 502.26885738 188.20275559 507.697055 176.67564023 513.06155586 C174.85647939 513.90831375 173.03811554 514.75678321 171.21976864 515.60528755 C170.14549618 516.10407417 169.07122372 516.60286079 167.96439755 517.11676216 C167.02571835 517.55319038 166.08703915 517.98961861 165.11991513 518.43927193 C163.0073663 519.36285591 163.0073663 519.36285591 162.0073663 519.36285591 C162.0073663 493.29285591 162.0073663 467.22285591 162.0073663 440.36285591 C156.26555966 440.37856636 150.52375302 440.39427681 144.60795224 440.41046333 C125.58911317 440.4602809 106.57027146 440.4935067 87.55138409 440.51829243 C76.02577254 440.53371432 64.50022311 440.55471366 52.97465146 440.58917427 C42.92059936 440.61922063 32.8665923 440.63846484 22.81249654 440.6451214 C17.49653444 440.64900801 12.18070109 440.65804282 6.86478055 440.68004608 C1.84480603 440.70065287 -3.17498868 440.70664171 -8.19500148 440.70217896 C-10.02170088 440.70299348 -11.84840732 440.70881323 -13.67506969 440.72047234 C-30.34011017 440.82147818 -46.57552475 438.88130381 -62.7426337 434.73785591 C-64.2271503 434.35935493 -64.2271503 434.35935493 -65.74165714 433.97320747 C-110.77252275 422.02276318 -151.91899127 395.84845027 -180.9926337 359.36285591 C-181.63845401 358.59586372 -182.28427433 357.82887154 -182.94966495 357.03863716 C-218.01736003 314.97168725 -233.65654634 257.52199836 -229.9926337 203.36285591 C-228.99216411 192.93709006 -227.00141545 182.63183395 -224.9926337 172.36285591 C-224.83278995 171.49741158 -224.6729462 170.63196724 -224.5082587 169.74029732 C-218.3872222 136.88931785 -201.312953 105.77254744 -179.9926337 80.36285591 C-179.09542317 79.27958479 -178.19829297 78.19624712 -177.30122745 77.11285591 C-172.44608642 71.28053778 -167.57478559 65.52071122 -161.9926337 60.36285591 C-161.43962589 59.8510981 -160.88661808 59.33934029 -160.31685245 58.81207466 C-132.1258596 33.51865709 -99.62929106 15.52882691 -62.8676337 6.05035591 C-61.97536075 5.81961372 -61.0830878 5.58887154 -60.16377628 5.35113716 C-57.11842748 4.6134625 -54.06449031 3.98197533 -50.9926337 3.36285591 C-49.72919352 3.10775372 -48.46575334 2.85265152 -47.16402709 2.58981895 C-31.52711246 -0.27188076 -15.83050016 -0.05493983 0 0 Z " fill="#c22" description="the robot's head" transform="translate(422.9926337003708,477.6371440887451)"/>
<path d="M0 0 C2.26371004 -0.00407347 4.52741809 -0.00941967 6.79112244 -0.01593018 C12.89434357 -0.02951657 18.99741126 -0.02434138 25.10063481 -0.01479292 C31.51309296 -0.00715204 37.92553872 -0.01425407 44.33799744 -0.01895142 C55.78938371 -0.02474359 67.24068561 -0.01547195 78.6920576 -0.0001734 C89.04506484 0.01323021 99.39797113 0.01089533 109.75097656 -0.00292969 C121.81684091 -0.01903479 133.88262919 -0.02493372 145.9485082 -0.0160929 C152.31982846 -0.01143495 158.6910794 -0.01073967 165.0623951 -0.02070236 C171.05356651 -0.0294178 177.0445487 -0.02326693 183.03569984 -0.00601959 C185.22410011 -0.00207928 187.41251651 -0.00314625 189.60091019 -0.00980759 C217.61690259 -0.08717393 241.99688076 6.05297669 263.12475586 25.38818359 C264.49374023 26.61794922 264.49374023 26.61794922 265.89038086 27.87255859 C281.87791041 42.96693007 294.08745383 65.21816182 295.23291016 87.49121094 C295.93897992 115.00199449 290.31198095 141.60485305 271.12475586 162.38818359 C270.24174805 163.36271484 269.35874023 164.33724609 268.44897461 165.34130859 C252.6138913 182.28762581 229.35055778 194.21666191 206.0198307 195.5680275 C202.59784784 195.63231622 199.1813147 195.63583271 195.75878906 195.61523438 C193.82517265 195.61567245 193.82517265 195.61567245 191.85249329 195.61611938 C188.3531989 195.61668804 184.85404449 195.60501372 181.35478234 195.59097147 C177.68462366 195.57838187 174.014461 195.57728718 170.34428406 195.57492065 C163.41017339 195.56872988 156.47612656 195.55235195 149.54204386 195.53222167 C140.16079511 195.50558419 130.77952863 195.49487059 121.39825153 195.48321724 C106.64037192 195.46446934 91.88262696 195.42460779 77.12475586 195.38818359 C77.12475586 217.49818359 77.12475586 239.60818359 77.12475586 262.38818359 C71.81842388 258.40843461 66.76283826 254.44678841 61.81225586 250.07568359 C56.57434084 245.49267037 51.27560655 241.01186976 45.86694336 236.63037109 C42.75475438 234.08564677 39.68749089 231.49200135 36.62475586 228.88818359 C31.77805383 224.769411 26.87944529 220.72217296 21.94506836 216.70849609 C19.33743803 214.56316034 16.75744458 212.39062144 14.18945312 210.19824219 C13.06557313 209.24373177 11.93583689 208.29607301 10.80029297 207.35546875 C8.42697412 205.38697518 6.16880089 203.43583612 4.07397461 201.16943359 C-1.81529655 195.21919689 -8.3932385 195.773231 -16.29248047 195.65820312 C-38.42096916 195.29911264 -60.43869019 186.17600914 -76.87524414 171.38818359 C-77.35348633 170.95908691 -77.83172852 170.52999023 -78.32446289 170.08789062 C-96.5218293 153.52197191 -108.39134463 130.45454594 -110.05249023 105.75244141 C-111.1332647 79.95066121 -104.90740187 54.83941929 -87.47216797 35.17504883 C-85.0092658 32.50759059 -82.4595595 29.93745739 -79.87524414 27.38818359 C-79.06313477 26.56576172 -78.25102539 25.74333984 -77.41430664 24.89599609 C-55.91289778 4.25178626 -28.64956994 -0.08729615 0 0 Z " fill="#c22" description="speech bubble top left" transform="translate(195.875244140625,98.61181640625)"/>
<path d="M0 0 C2.26371004 -0.00407347 4.52741809 -0.00941967 6.79112244 -0.01593018 C12.89434357 -0.02951657 18.99741126 -0.02434138 25.10063481 -0.01479292 C31.51309296 -0.00715204 37.92553872 -0.01425407 44.33799744 -0.01895142 C55.78938371 -0.02474359 67.24068561 -0.01547195 78.6920576 -0.0001734 C89.04506484 0.01323021 99.39797113 0.01089533 109.75097656 -0.00292969 C121.81684091 -0.01903479 133.88262919 -0.02493372 145.9485082 -0.0160929 C152.31982846 -0.01143495 158.6910794 -0.01073967 165.0623951 -0.02070236 C171.05356651 -0.0294178 177.0445487 -0.02326693 183.03569984 -0.00601959 C185.22410011 -0.00207928 187.41251651 -0.00314625 189.60091019 -0.00980759 C217.61690259 -0.08717393 241.99688076 6.05297669 263.12475586 25.38818359 C264.49374023 26.61794922 264.49374023 26.61794922 265.89038086 27.87255859 C281.87791041 42.96693007 294.08745383 65.21816182 295.23291016 87.49121094 C295.93897992 115.00199449 290.31198095 141.60485305 271.12475586 162.38818359 C270.24174805 163.36271484 269.35874023 164.33724609 268.44897461 165.34130859 C255.67345558 179.01335528 238.40275088 189.10000173 220.12475586 193.38818359 C218.97813477 193.67628906 218.97813477 193.67628906 217.80834961 193.97021484 C213.2127507 194.96988346 208.80695307 195.42981984 204.10913086 195.45068359 C191.23933036 195.23451065 191.23933036 195.23451065 180.67553711 201.76708984 C179.8337793 202.63205078 178.99202148 203.49701172 178.12475586 204.38818359 C175.48340522 206.65333967 172.76860959 208.82642321 170.06225586 211.01318359 C168.58033219 212.23277203 167.09988073 213.45415138 165.62084961 214.67724609 C161.29167741 218.25103625 156.95866678 221.82014259 152.62475586 225.38818359 C151.20807038 226.55482742 149.79140375 227.72149413 148.37475586 228.88818359 C145.54142253 231.22151693 142.70808919 233.55485026 139.87475586 235.88818359 C138.82106812 236.75600464 138.82106812 236.75600464 137.74609375 237.64135742 C136.34184117 238.79769615 134.93738445 239.95378703 133.53271484 241.10961914 C129.7993249 244.18220905 126.07048295 247.26012616 122.34741211 250.34521484 C121.17758789 251.31297852 121.17758789 251.31297852 119.98413086 252.30029297 C118.48152987 253.5435164 116.98017556 254.78824855 115.48022461 256.03466797 C114.80733398 256.59089844 114.13444336 257.14712891 113.44116211 257.72021484 C112.55086304 258.45848511 112.55086304 258.45848511 111.64257812 259.21166992 C110.12475586 260.38818359 110.12475586 260.38818359 108.12475586 261.38818359 C108.12475586 239.60818359 108.12475586 217.82818359 108.12475586 195.38818359 C98.72104492 195.43458984 89.31733398 195.48099609 79.62866211 195.52880859 C73.6449337 195.54926448 67.66123089 195.56868794 61.67749023 195.58349609 C52.1952236 195.60715185 42.71310003 195.63483056 33.23095703 195.68994141 C26.3225179 195.73007424 19.41419579 195.75567855 12.50564331 195.76453757 C8.85468948 195.7697081 5.20407013 195.78167633 1.55322456 195.81110382 C-27.71888383 196.03777757 -54.2329485 191.75926131 -76.87524414 171.38818359 C-77.35348633 170.95908691 -77.83172852 170.52999023 -78.32446289 170.08789062 C-96.5218293 153.52197191 -108.39134463 130.45454594 -110.05249023 105.75244141 C-111.1332647 79.95066121 -104.90740187 54.83941929 -87.47216797 35.17504883 C-85.0092658 32.50759059 -82.4595595 29.93745739 -79.87524414 27.38818359 C-79.06313477 26.56576172 -78.25102539 25.74333984 -77.41430664 24.89599609 C-55.91289778 4.25178626 -28.64956994 -0.08729615 0 0 Z " fill="#c22" description="speech bubble top right" transform="translate(757.875244140625,98.61181640625)"/>
<path d="M0 0 C8.0611238 7.18213168 15.09670333 14.76063295 21.14453125 23.70703125 C21.52802734 24.26938477 21.91152344 24.83173828 22.30664062 25.41113281 C33.40957433 41.99114185 42.14453125 62.60278526 42.14453125 82.70703125 C-41.34546875 82.70703125 -124.83546875 82.70703125 -210.85546875 82.70703125 C-208.53056252 62.9453283 -208.53056252 62.9453283 -206.23046875 56.64453125 C-205.97249512 55.90831543 -205.71452148 55.17209961 -205.44873047 54.41357422 C-194.14759938 23.27045722 -171.63584464 -3.41633582 -141.85546875 -18.29296875 C-94.34486623 -40.04722177 -39.99213644 -34.62916793 0 0 Z " fill="#c22" description="the robot's hat" transform="translate(651.85546875,367.29296875)"/>
<path d="M0 0 C1.16208984 0.01353516 1.16208984 0.01353516 2.34765625 0.02734375 C16.66027342 0.69615764 29.71266731 9.49692391 39.375 19.4453125 C51.11493922 33.27531665 54.739483 48.29132823 54 66 C52.57552336 81.26224971 45.30078657 94.52394658 34.0625 104.875 C19.94557029 116.341518 4.86037402 120.09473348 -13 119 C-28.67662263 116.98272468 -42.19445241 109.19100815 -52.3125 97.125 C-62.39344027 83.73783586 -67.17883982 66.72340863 -65 50 C-61.92427119 32.79410843 -52.41759481 19.07272197 -38.2265625 9.0390625 C-26.33122382 1.48089824 -13.9229984 -0.81695496 0 0 Z " fill="#c22" description="the robot's right eye" transform="translate(794,631)"/>
<path d="M0 0 C1.16208984 0.01353516 1.16208984 0.01353516 2.34765625 0.02734375 C16.66027342 0.69615764 29.71266731 9.49692391 39.375 19.4453125 C51.11493922 33.27531665 54.739483 48.29132823 54 66 C52.57552336 81.26224971 45.30078657 94.52394658 34.0625 104.875 C19.94557029 116.341518 4.86037402 120.09473348 -13 119 C-28.67662263 116.98272468 -42.19445241 109.19100815 -52.3125 97.125 C-62.39344027 83.73783586 -67.17883982 66.72340863 -65 50 C-61.92427119 32.79410843 -52.41759481 19.07272197 -38.2265625 9.0390625 C-26.33122382 1.48089824 -13.9229984 -0.81695496 0 0 Z " fill="#c22" description="the robot's left eye" transform="translate(358,631)"/>
<path d="M0 0 C-0.58503416 3.82522338 -1.80506873 7.23077576 -3.22167969 10.82177734 C-10.92481527 30.46269114 -15.79525893 51.03347113 -18 72 C-18.0942627 72.82540283 -18.18852539 73.65080566 -18.28564453 74.5012207 C-19.1122881 82.39369862 -19.1599895 90.25849626 -19.125 98.1875 C-19.12245209 98.87752106 -19.11990417 99.56754211 -19.11727905 100.2784729 C-19.09747483 104.85258625 -19.05423792 109.42614851 -19 114 C-18.99274902 114.83789062 -18.98549805 115.67578125 -18.97802734 116.5390625 C-18.66173488 139.09768452 -12.49540872 161.55667559 -6 183 C-5.42937835 184.90355319 -4.85904953 186.80719419 -4.2890625 188.7109375 C-3.85955404 190.1406788 -3.429938 191.57038781 -3 193 C-22.07746376 191.68431284 -41.03991405 183.06701648 -55 170 C-55.97195312 169.11828125 -56.94390625 168.2365625 -57.9453125 167.328125 C-76.14297654 150.33524419 -87.24972737 126.50729963 -88.29296875 101.6015625 C-88.88939006 75.84375676 -81.7795297 51.31351569 -64.0625 32.125 C-62.07444436 30.04897454 -60.04624091 28.01849527 -58 26 C-57.18789062 25.17757812 -56.37578125 24.35515625 -55.5390625 23.5078125 C-41.47636355 10.00575272 -19.8851797 -1.07487458 0 0 Z " fill="#c22" description="the robot's left ear" transform="translate(183,597)"/>
<path d="M0 0 C15.75210418 13.57072091 27.56159939 33.5226349 29.19628906 54.52148438 C30.46662605 77.22775927 25.20951401 99.23070237 10.04296875 116.7734375 C9.36878906 117.50820313 8.69460938 118.24296875 8 119 C7.33613281 119.75539063 6.67226563 120.51078125 5.98828125 121.2890625 C-7.76821533 136.08810318 -28.24525805 145.25301215 -48.3515625 146.38671875 C-73.54857941 147.18289886 -94.70849188 138.661661 -113.125 121.375 C-121.75541886 112.42900143 -127.96581239 101.73177352 -132 90 C-132.391875 88.90816406 -132.78375 87.81632813 -133.1875 86.69140625 C-139.73949581 65.92066952 -136.46751534 44.01440018 -126.93066406 24.77441406 C-116.51377269 4.91345748 -98.30433464 -9.13458576 -77.27734375 -16.03515625 C-50.08399455 -24.0408264 -21.91346722 -17.6156001 0 0 Z M-100 25 C-110.08314584 38.07711747 -115.01568374 53.53329231 -113 70 C-110.2538675 87.23960956 -102.7936926 101.52614071 -88.69140625 112.18359375 C-74.26589874 121.91924105 -58.00367773 125.11376268 -40.89453125 122.53125 C-25.26962248 118.74339333 -11.91013102 109.30783517 -3 96 C5.07085951 81.79528726 9.13070472 65.55962706 4.7421875 49.328125 C4.49726562 48.55984375 4.25234375 47.7915625 4 47 C3.69320312 46.00484375 3.38640625 45.0096875 3.0703125 43.984375 C-2.06427461 29.04095595 -12.11700749 17.39763187 -26.1875 10.125 C-27.78218458 9.39557015 -29.38596886 8.68555838 -31 8 C-31.68835938 7.69320312 -32.37671875 7.38640625 -33.0859375 7.0703125 C-38.01625697 5.02413248 -42.68749015 4.27202611 -48 4 C-49.0415625 3.93554688 -50.083125 3.87109375 -51.15625 3.8046875 C-70.57146506 3.14876807 -86.96834795 10.72532883 -100 25 Z " fill="white" description="right eye's circle white line" transform="translate(842,627)"/>
<path d="M0 0 C15.75210418 13.57072091 27.56159939 33.5226349 29.19628906 54.52148438 C30.46662605 77.22775927 25.20951401 99.23070237 10.04296875 116.7734375 C9.36878906 117.50820313 8.69460938 118.24296875 8 119 C7.33613281 119.75539063 6.67226563 120.51078125 5.98828125 121.2890625 C-7.76821533 136.08810318 -28.24525805 145.25301215 -48.3515625 146.38671875 C-73.54857941 147.18289886 -94.70849188 138.661661 -113.125 121.375 C-121.75541886 112.42900143 -127.96581239 101.73177352 -132 90 C-132.391875 88.90816406 -132.78375 87.81632813 -133.1875 86.69140625 C-139.73949581 65.92066952 -136.46751534 44.01440018 -126.93066406 24.77441406 C-116.51377269 4.91345748 -98.30433464 -9.13458576 -77.27734375 -16.03515625 C-50.08399455 -24.0408264 -21.91346722 -17.6156001 0 0 Z M-100 25 C-110.08314584 38.07711747 -115.01568374 53.53329231 -113 70 C-110.2538675 87.23960956 -102.7936926 101.52614071 -88.69140625 112.18359375 C-74.26589874 121.91924105 -58.00367773 125.11376268 -40.89453125 122.53125 C-25.26962248 118.74339333 -11.91013102 109.30783517 -3 96 C5.07085951 81.79528726 9.13070472 65.55962706 4.7421875 49.328125 C4.49726563 48.55984375 4.25234375 47.7915625 4 47 C3.69320312 46.00484375 3.38640625 45.0096875 3.0703125 43.984375 C-2.06427461 29.04095595 -12.11700749 17.39763187 -26.1875 10.125 C-27.78218458 9.39557015 -29.38596886 8.68555838 -31 8 C-31.68835938 7.69320312 -32.37671875 7.38640625 -33.0859375 7.0703125 C-38.01625697 5.02413248 -42.68749015 4.27202611 -48 4 C-49.0415625 3.93554688 -50.083125 3.87109375 -51.15625 3.8046875 C-70.57146506 3.14876807 -86.96834795 10.72532883 -100 25 Z " fill="white" description="left eye's white circle line" transform="translate(406,627)"/>
<path d="M0 0 C21.56756721 0.40623842 40.25005288 9.58641203 56 24 C56.91265625 24.81984375 57.8253125 25.6396875 58.765625 26.484375 C74.75315455 41.57874648 86.96269797 63.82997822 88.1081543 86.10302734 C88.81422406 113.61381089 83.18722509 140.21666946 64 161 C63.11699219 161.97453125 62.23398437 162.9490625 61.32421875 163.953125 C47.44427463 178.80710028 28.15230132 189.5953876 8 193 C5.8034668 192.53320312 5.8034668 192.53320312 4 192 C4.33209473 190.99755249 4.33209473 190.99755249 4.67089844 189.97485352 C18.11322304 149.21075936 23.51065299 108.9037537 18 66 C17.85522217 64.81881592 17.85522217 64.81881592 17.70751953 63.61376953 C14.94967367 41.72761344 8.36334627 20.37540733 0 0 Z " fill="#c22" description="the robot's right ear" transform="translate(952,597)"/>
<path d="M0 0 C0.9169803 -0.00297112 1.8339606 -0.00594224 2.77872819 -0.0090034 C5.87025069 -0.01771751 8.9617346 -0.01920093 12.05326843 -0.02069092 C14.26217228 -0.02531717 16.47107532 -0.03034157 18.67997742 -0.03573608 C24.6944654 -0.04888061 30.70894221 -0.05530903 36.72344232 -0.05974674 C40.47805638 -0.06267415 44.23266737 -0.06677831 47.98727989 -0.07125092 C58.3800316 -0.08336276 68.77278113 -0.09374382 79.16553974 -0.09712601 C80.16361646 -0.09745536 80.16361646 -0.09745536 81.18185635 -0.09779136 C81.84884615 -0.09800964 82.51583595 -0.09822791 83.20303756 -0.09845281 C84.55464447 -0.09889627 85.90625137 -0.09934284 87.25785828 -0.09979248 C88.26352693 -0.10012463 88.26352693 -0.10012463 89.28951212 -0.10046348 C100.15303585 -0.10441145 111.0164925 -0.12186477 121.87999032 -0.145152 C133.02990906 -0.16886052 144.17980332 -0.1810696 155.32974976 -0.18249393 C161.59142718 -0.18354375 167.85301002 -0.18948929 174.11466408 -0.20731354 C180.00382319 -0.22375074 185.89281622 -0.22597088 191.78199005 -0.21717453 C193.94556052 -0.21640182 196.10913975 -0.22077749 198.27268791 -0.23063278 C201.22251896 -0.24328341 204.17175565 -0.23751289 207.12158203 -0.22705078 C207.98111695 -0.23510719 208.84065187 -0.24316359 209.7262333 -0.25146413 C215.44729216 -0.20389118 218.78048704 0.84006104 223.06376648 4.82794189 C224.81023988 8.22896904 224.91964303 11.44600887 224.25126648 15.14044189 C222.07117974 18.72201297 220.07519369 20.53841147 216.25126648 22.14044189 C213.22647477 22.33762591 210.29369953 22.4230941 207.26875305 22.41459656 C206.35076947 22.41983324 205.43278588 22.42506992 204.48698461 22.43046528 C201.40397357 22.44549435 198.32112808 22.44617107 195.23808289 22.44683838 C193.03050454 22.45445785 190.82292886 22.46288498 188.61535645 22.47206116 C182.61331065 22.49403272 176.61131581 22.50280854 170.60923433 22.5078876 C166.86096242 22.51152775 163.11270392 22.51776599 159.3644371 22.52488899 C148.98447564 22.54434585 138.60452347 22.56085841 128.22454262 22.56376553 C127.56047994 22.5639531 126.89641727 22.56414067 126.21223148 22.56433392 C124.86604937 22.56470017 123.51986726 22.56506387 122.17368515 22.56542503 C121.5054491 22.56560784 120.83721305 22.56579065 120.14872742 22.565979 C119.14514873 22.56624983 119.14514873 22.56624983 118.12129574 22.56652612 C107.27791618 22.57006851 96.43473512 22.59709601 85.59142442 22.63447689 C74.45612658 22.67255695 63.32090136 22.69148186 52.18553102 22.69222504 C45.93440503 22.69301906 39.68353516 22.70181581 33.43246841 22.7302227 C27.55385413 22.75633927 21.67570949 22.75864412 15.79706383 22.74256706 C13.6387435 22.74074753 11.48039656 22.74748848 9.32213402 22.76338577 C6.3767788 22.78375909 3.43308034 22.77334558 0.48774719 22.75517273 C-0.36751065 22.7683727 -1.22276849 22.78157266 -2.10394323 22.79517263 C-6.29449999 22.73606514 -8.94367028 22.40596239 -12.26351357 19.72702122 C-15.63802905 16.21487656 -16.14385048 14.15149496 -16.10810852 9.24591064 C-15.47291538 5.52450737 -13.40894336 3.7373134 -10.74873352 1.14044189 C-7.4136977 -0.52707601 -3.66724136 -0.00366832 0 0 Z " fill="white" description="bottom text line on right speech bubble" transform="translate(746.7487335205078,227.85955810546875)"/>
<path d="M0 0 C0.9169803 -0.00297112 1.8339606 -0.00594224 2.77872819 -0.0090034 C5.87025069 -0.01771751 8.9617346 -0.01920093 12.05326843 -0.02069092 C14.26217228 -0.02531717 16.47107532 -0.03034157 18.67997742 -0.03573608 C24.6944654 -0.04888061 30.70894221 -0.05530903 36.72344232 -0.05974674 C40.47805638 -0.06267415 44.23266737 -0.06677831 47.98727989 -0.07125092 C58.3800316 -0.08336276 68.77278113 -0.09374382 79.16553974 -0.09712601 C80.16361646 -0.09745536 80.16361646 -0.09745536 81.18185635 -0.09779136 C81.84884615 -0.09800964 82.51583595 -0.09822791 83.20303756 -0.09845281 C84.55464447 -0.09889627 85.90625137 -0.09934284 87.25785828 -0.09979248 C88.26352693 -0.10012463 88.26352693 -0.10012463 89.28951212 -0.10046348 C100.15303585 -0.10441145 111.0164925 -0.12186477 121.87999032 -0.145152 C133.02990906 -0.16886052 144.17980332 -0.1810696 155.32974976 -0.18249393 C161.59142718 -0.18354375 167.85301002 -0.18948929 174.11466408 -0.20731354 C180.00382319 -0.22375074 185.89281622 -0.22597088 191.78199005 -0.21717453 C193.94556052 -0.21640182 196.10913975 -0.22077749 198.27268791 -0.23063278 C201.22251896 -0.24328341 204.17175565 -0.23751289 207.12158203 -0.22705078 C207.98111695 -0.23510719 208.84065187 -0.24316359 209.7262333 -0.25146413 C215.44729216 -0.20389118 218.78048704 0.84006104 223.06376648 4.82794189 C224.81023988 8.22896904 224.91964303 11.44600887 224.25126648 15.14044189 C222.07117974 18.72201297 220.07519369 20.53841147 216.25126648 22.14044189 C213.22647477 22.33762591 210.29369953 22.4230941 207.26875305 22.41459656 C206.35076947 22.41983324 205.43278588 22.42506992 204.48698461 22.43046528 C201.40397357 22.44549435 198.32112808 22.44617107 195.23808289 22.44683838 C193.03050454 22.45445785 190.82292886 22.46288498 188.61535645 22.47206116 C182.61331065 22.49403272 176.61131581 22.50280854 170.60923433 22.5078876 C166.86096242 22.51152775 163.11270392 22.51776599 159.3644371 22.52488899 C148.98447564 22.54434585 138.60452347 22.56085841 128.22454262 22.56376553 C127.56047994 22.5639531 126.89641727 22.56414067 126.21223148 22.56433392 C124.86604937 22.56470017 123.51986726 22.56506387 122.17368515 22.56542503 C121.5054491 22.56560784 120.83721305 22.56579065 120.14872742 22.565979 C119.14514873 22.56624983 119.14514873 22.56624983 118.12129574 22.56652612 C107.27791618 22.57006851 96.43473512 22.59709601 85.59142442 22.63447689 C74.45612658 22.67255695 63.32090136 22.69148186 52.18553102 22.69222504 C45.93440503 22.69301906 39.68353516 22.70181581 33.43246841 22.7302227 C27.55385413 22.75633927 21.67570949 22.75864412 15.79706383 22.74256706 C13.6387435 22.74074753 11.48039656 22.74748848 9.32213402 22.76338577 C6.3767788 22.78375909 3.43308034 22.77334558 0.48774719 22.75517273 C-0.36751065 22.7683727 -1.22276849 22.78157266 -2.10394323 22.79517263 C-6.29449999 22.73606514 -8.94367028 22.40596239 -12.26351357 19.72702122 C-15.63802905 16.21487656 -16.14385048 14.15149496 -16.10810852 9.24591064 C-15.47291538 5.52450737 -13.40894336 3.7373134 -10.74873352 1.14044189 C-7.4136977 -0.52707601 -3.66724136 -0.00366832 0 0 Z " fill="white" description="bottom text line on left speech bubble" transform="translate(183.7487335205078,227.85955810546875)"/>
<path d="M0 0 C0.9169803 -0.00297112 1.8339606 -0.00594224 2.77872819 -0.0090034 C5.87025069 -0.01771751 8.9617346 -0.01920093 12.05326843 -0.02069092 C14.26217228 -0.02531717 16.47107532 -0.03034157 18.67997742 -0.03573608 C24.6944654 -0.04888061 30.70894221 -0.05530903 36.72344232 -0.05974674 C40.47805638 -0.06267415 44.23266737 -0.06677831 47.98727989 -0.07125092 C58.3800316 -0.08336276 68.77278113 -0.09374382 79.16553974 -0.09712601 C80.16361646 -0.09745536 80.16361646 -0.09745536 81.18185635 -0.09779136 C81.84884615 -0.09800964 82.51583595 -0.09822791 83.20303756 -0.09845281 C84.55464447 -0.09889627 85.90625137 -0.09934284 87.25785828 -0.09979248 C88.26352693 -0.10012463 88.26352693 -0.10012463 89.28951212 -0.10046348 C100.15303585 -0.10441145 111.0164925 -0.12186477 121.87999032 -0.145152 C133.02990906 -0.16886052 144.17980332 -0.1810696 155.32974976 -0.18249393 C161.59142718 -0.18354375 167.85301002 -0.18948929 174.11466408 -0.20731354 C180.00382319 -0.22375074 185.89281622 -0.22597088 191.78199005 -0.21717453 C193.94556052 -0.21640182 196.10913975 -0.22077749 198.27268791 -0.23063278 C201.22251896 -0.24328341 204.17175565 -0.23751289 207.12158203 -0.22705078 C207.98111695 -0.23510719 208.84065187 -0.24316359 209.7262333 -0.25146413 C215.44729216 -0.20389118 218.78048704 0.84006104 223.06376648 4.82794189 C224.81023988 8.22896904 224.91964303 11.44600887 224.25126648 15.14044189 C222.07117974 18.72201297 220.07519369 20.53841147 216.25126648 22.14044189 C213.22647477 22.33762591 210.29369953 22.4230941 207.26875305 22.41459656 C206.35076947 22.41983324 205.43278588 22.42506992 204.48698461 22.43046528 C201.40397357 22.44549435 198.32112808 22.44617107 195.23808289 22.44683838 C193.03050454 22.45445785 190.82292886 22.46288498 188.61535645 22.47206116 C182.61331065 22.49403272 176.61131581 22.50280854 170.60923433 22.5078876 C166.86096242 22.51152775 163.11270392 22.51776599 159.3644371 22.52488899 C148.98447564 22.54434585 138.60452347 22.56085841 128.22454262 22.56376553 C127.56047994 22.5639531 126.89641727 22.56414067 126.21223148 22.56433392 C124.86604937 22.56470017 123.51986726 22.56506387 122.17368515 22.56542503 C121.5054491 22.56560784 120.83721305 22.56579065 120.14872742 22.565979 C119.14514873 22.56624983 119.14514873 22.56624983 118.12129574 22.56652612 C107.27791618 22.57006851 96.43473512 22.59709601 85.59142442 22.63447689 C74.45612658 22.67255695 63.32090136 22.69148186 52.18553102 22.69222504 C45.93440503 22.69301906 39.68353516 22.70181581 33.43246841 22.7302227 C27.55385413 22.75633927 21.67570949 22.75864412 15.79706383 22.74256706 C13.6387435 22.74074753 11.48039656 22.74748848 9.32213402 22.76338577 C6.3767788 22.78375909 3.43308034 22.77334558 0.48774719 22.75517273 C-0.36751065 22.7683727 -1.22276849 22.78157266 -2.10394323 22.79517263 C-6.29449999 22.73606514 -8.94367028 22.40596239 -12.26351357 19.72702122 C-15.63802905 16.21487656 -16.14385048 14.15149496 -16.10810852 9.24591064 C-15.47291538 5.52450737 -13.40894336 3.7373134 -10.74873352 1.14044189 C-7.4136977 -0.52707601 -3.66724136 -0.00366832 0 0 Z " fill="white" description="top text line on right speech bubble" transform="translate(743.7487335205078,135.85955810546875)"/>
<path d="M0 0 C0.9169803 -0.00297112 1.8339606 -0.00594224 2.77872819 -0.0090034 C5.87025069 -0.01771751 8.9617346 -0.01920093 12.05326843 -0.02069092 C14.26217228 -0.02531717 16.47107532 -0.03034157 18.67997742 -0.03573608 C24.6944654 -0.04888061 30.70894221 -0.05530903 36.72344232 -0.05974674 C40.47805638 -0.06267415 44.23266737 -0.06677831 47.98727989 -0.07125092 C58.3800316 -0.08336276 68.77278113 -0.09374382 79.16553974 -0.09712601 C80.16361646 -0.09745536 80.16361646 -0.09745536 81.18185635 -0.09779136 C81.84884615 -0.09800964 82.51583595 -0.09822791 83.20303756 -0.09845281 C84.55464447 -0.09889627 85.90625137 -0.09934284 87.25785828 -0.09979248 C88.26352693 -0.10012463 88.26352693 -0.10012463 89.28951212 -0.10046348 C100.15303585 -0.10441145 111.0164925 -0.12186477 121.87999032 -0.145152 C133.02990906 -0.16886052 144.17980332 -0.1810696 155.32974976 -0.18249393 C161.59142718 -0.18354375 167.85301002 -0.18948929 174.11466408 -0.20731354 C180.00382319 -0.22375074 185.89281622 -0.22597088 191.78199005 -0.21717453 C193.94556052 -0.21640182 196.10913975 -0.22077749 198.27268791 -0.23063278 C201.22251896 -0.24328341 204.17175565 -0.23751289 207.12158203 -0.22705078 C207.98111695 -0.23510719 208.84065187 -0.24316359 209.7262333 -0.25146413 C215.44729216 -0.20389118 218.78048704 0.84006104 223.06376648 4.82794189 C224.81023988 8.22896904 224.91964303 11.44600887 224.25126648 15.14044189 C222.07117974 18.72201297 220.07519369 20.53841147 216.25126648 22.14044189 C213.22647477 22.33762591 210.29369953 22.4230941 207.26875305 22.41459656 C206.35076947 22.41983324 205.43278588 22.42506992 204.48698461 22.43046528 C201.40397357 22.44549435 198.32112808 22.44617107 195.23808289 22.44683838 C193.03050454 22.45445785 190.82292886 22.46288498 188.61535645 22.47206116 C182.61331065 22.49403272 176.61131581 22.50280854 170.60923433 22.5078876 C166.86096242 22.51152775 163.11270392 22.51776599 159.3644371 22.52488899 C148.98447564 22.54434585 138.60452347 22.56085841 128.22454262 22.56376553 C127.56047994 22.5639531 126.89641727 22.56414067 126.21223148 22.56433392 C124.86604937 22.56470017 123.51986726 22.56506387 122.17368515 22.56542503 C121.5054491 22.56560784 120.83721305 22.56579065 120.14872742 22.565979 C119.14514873 22.56624983 119.14514873 22.56624983 118.12129574 22.56652612 C107.27791618 22.57006851 96.43473512 22.59709601 85.59142442 22.63447689 C74.45612658 22.67255695 63.32090136 22.69148186 52.18553102 22.69222504 C45.93440503 22.69301906 39.68353516 22.70181581 33.43246841 22.7302227 C27.55385413 22.75633927 21.67570949 22.75864412 15.79706383 22.74256706 C13.6387435 22.74074753 11.48039656 22.74748848 9.32213402 22.76338577 C6.3767788 22.78375909 3.43308034 22.77334558 0.48774719 22.75517273 C-0.36751065 22.7683727 -1.22276849 22.78157266 -2.10394323 22.79517263 C-6.29449999 22.73606514 -8.94367028 22.40596239 -12.26351357 19.72702122 C-15.63802905 16.21487656 -16.14385048 14.15149496 -16.10810852 9.24591064 C-15.47291538 5.52450737 -13.40894336 3.7373134 -10.74873352 1.14044189 C-7.4136977 -0.52707601 -3.66724136 -0.00366832 0 0 Z " fill="white" description="top text line on left speech bubble" transform="translate(186.7487335205078,135.85955810546875)"/>
<path d="M0 0 C3.21084122 1.7057594 5.78982224 3.67091588 8.4375 6.125 C23.55204237 19.49121844 41.49086232 26.07283592 61 30 C61.79720459 30.1757959 62.59440918 30.3515918 63.41577148 30.53271484 C88.82972787 35.12811518 118.14353655 27.13051911 139.2890625 12.765625 C144.72683468 8.7446421 149.93986676 4.4851181 155 0 C159.07376031 1.61010527 161.76507069 4.53822271 164.75 7.625 C165.25660156 8.140625 165.76320313 8.65625 166.28515625 9.1875 C167.52803902 10.45383339 168.76465276 11.7263144 170 13 C163.61617048 28.0644866 140.270919 38.13486852 126 44 C109.93309857 50.44619634 94.5430337 52.27220866 77.4375 52.375 C76.74529358 52.38294586 76.05308716 52.39089172 75.33990479 52.39907837 C40.6563922 52.70449039 11.39678208 37.70103426 -14 15 C-9.59156563 9.70987876 -4.92440206 4.81191572 0 0 Z " fill="white" description="the robot's mouth line" transform="translate(488,760)"/>
</svg>
